<svg width="24" height="19" viewBox="0 0 24 19" fill="none" xmlns="http://www.w3.org/2000/svg">
<path d="M23 11.75L17.5 17.75L13 11.7501" stroke="black" stroke-width="2" stroke-linecap="round" stroke-linejoin="round"/>
<path d="M1 10.75L7 17.75L12 11.2499" stroke="black" stroke-width="2" stroke-linecap="round" stroke-linejoin="round"/>
<path d="M14.7773 6.71C14.428 7.418 13.9547 8.12333 13.4707 8.75667C13.011 9.35334 12.5201 9.92525 12 10.47C11.4799 9.92525 10.989 9.35334 10.5293 8.75667C10.0453 8.12333 9.572 7.418 9.22267 6.71C8.86933 5.99467 8.66667 5.32467 8.66667 4.75C8.66667 3.86595 9.01786 3.0181 9.64298 2.39298C10.2681 1.76786 11.1159 1.41667 12 1.41667C12.8841 1.41667 13.7319 1.76786 14.357 2.39298C14.9821 3.0181 15.3333 3.86595 15.3333 4.75C15.3333 5.32467 15.13 5.99467 14.7773 6.71ZM12 11.4167C12 11.4167 16 7.626 16 4.75C16 3.68913 15.5786 2.67172 14.8284 1.92157C14.0783 1.17143 13.0609 0.75 12 0.75C10.9391 0.75 9.92172 1.17143 9.17157 1.92157C8.42143 2.67172 8 3.68913 8 4.75C8 7.626 12 11.4167 12 11.4167Z" fill="black" stroke="black" stroke-width="1.5"/>
<path d="M12 3.75C11.7348 3.75 11.4804 3.85536 11.2929 4.04289C11.1054 4.23043 11 4.48478 11 4.75C11 5.01522 11.1054 5.26957 11.2929 5.45711C11.4804 5.64464 11.7348 5.75 12 5.75C12.2652 5.75 12.5196 5.64464 12.7071 5.45711C12.8946 5.26957 13 5.01522 13 4.75C13 4.48478 12.8946 4.23043 12.7071 4.04289C12.5196 3.85536 12.2652 3.75 12 3.75Z" fill="black"/>
</svg>
