<svg width="24" height="22" viewBox="0 0 24 22" fill="none" xmlns="http://www.w3.org/2000/svg">
<path d="M0.75 9.5L7.25 16L11.75 11" stroke="black" stroke-width="1.5" stroke-linecap="round" stroke-linejoin="round"/>
<path d="M22.75 9.5L16.25 16L11.75 11" stroke="black" stroke-width="1.5" stroke-linecap="round" stroke-linejoin="round"/>
<path d="M14.5273 6.46C14.178 7.168 13.7047 7.87333 13.2207 8.50667C12.761 9.10334 12.2701 9.67525 11.75 10.22C11.2299 9.67525 10.739 9.10334 10.2793 8.50667C9.79533 7.87333 9.322 7.168 8.97267 6.46C8.61933 5.74467 8.41667 5.07467 8.41667 4.5C8.41667 3.61595 8.76786 2.7681 9.39298 2.14298C10.0181 1.51786 10.8659 1.16667 11.75 1.16667C12.6341 1.16667 13.4819 1.51786 14.107 2.14298C14.7321 2.7681 15.0833 3.61595 15.0833 4.5C15.0833 5.07467 14.88 5.74467 14.5273 6.46ZM11.75 11.1667C11.75 11.1667 15.75 7.376 15.75 4.5C15.75 3.43913 15.3286 2.42172 14.5784 1.67157C13.8283 0.921427 12.8109 0.5 11.75 0.5C10.6891 0.5 9.67172 0.921427 8.92157 1.67157C8.17143 2.42172 7.75 3.43913 7.75 4.5C7.75 7.376 11.75 11.1667 11.75 11.1667Z" fill="black" stroke="black"/>
<path d="M11.75 3.5C11.4848 3.5 11.2304 3.60536 11.0429 3.79289C10.8554 3.98043 10.75 4.23478 10.75 4.5C10.75 4.76522 10.8554 5.01957 11.0429 5.20711C11.2304 5.39464 11.4848 5.5 11.75 5.5C12.0152 5.5 12.2696 5.39464 12.4571 5.20711C12.6446 5.01957 12.75 4.76522 12.75 4.5C12.75 4.23478 12.6446 3.98043 12.4571 3.79289C12.2696 3.60536 12.0152 3.5 11.75 3.5Z" fill="black"/>
<path d="M5.51417 18.1475C5.7325 17.7493 6.02833 17.3525 6.33083 16.9962C6.6181 16.6606 6.92492 16.3389 7.25 16.0325C7.57508 16.3389 7.8819 16.6606 8.16917 16.9963C8.47167 17.3525 8.7675 17.7493 8.98583 18.1475C9.20667 18.5499 9.33333 18.9268 9.33333 19.25C9.33333 19.7473 9.11384 20.2242 8.72314 20.5758C8.33244 20.9275 7.80253 21.125 7.25 21.125C6.69747 21.125 6.16756 20.9275 5.77686 20.5758C5.38616 20.2242 5.16667 19.7473 5.16667 19.25C5.16667 18.9267 5.29375 18.5499 5.51417 18.1475ZM7.25 15.5C7.25 15.5 4.75 17.6322 4.75 19.25C4.75 19.8467 5.01339 20.419 5.48223 20.841C5.95107 21.2629 6.58696 21.5 7.25 21.5C7.91304 21.5 8.54893 21.2629 9.01777 20.841C9.48661 20.419 9.75 19.8467 9.75 19.25C9.75 17.6323 7.25 15.5 7.25 15.5Z" fill="black" stroke="black"/>
<path d="M14.5142 18.1475C14.7325 17.7493 15.0283 17.3525 15.3308 16.9962C15.6181 16.6606 15.9249 16.3389 16.25 16.0325C16.5751 16.3389 16.8819 16.6606 17.1692 16.9963C17.4717 17.3525 17.7675 17.7493 17.9858 18.1475C18.2067 18.5499 18.3333 18.9268 18.3333 19.25C18.3333 19.7473 18.1138 20.2242 17.7231 20.5758C17.3324 20.9275 16.8025 21.125 16.25 21.125C15.6975 21.125 15.1676 20.9275 14.7769 20.5758C14.3862 20.2242 14.1667 19.7473 14.1667 19.25C14.1667 18.9267 14.2937 18.5499 14.5142 18.1475ZM16.25 15.5C16.25 15.5 13.75 17.6322 13.75 19.25C13.75 19.8467 14.0134 20.419 14.4822 20.841C14.9511 21.2629 15.587 21.5 16.25 21.5C16.913 21.5 17.5489 21.2629 18.0178 20.841C18.4866 20.419 18.75 19.8467 18.75 19.25C18.75 17.6323 16.25 15.5 16.25 15.5Z" fill="black" stroke="black"/>
</svg>
