<svg width="28" height="26" viewBox="0 0 28 26" fill="none" xmlns="http://www.w3.org/2000/svg">
<path d="M27.0001 6.75L19.4946 18.75L14.5001 11.25" stroke="black" stroke-width="2" stroke-linecap="round"/>
<path d="M1.00012 6.75L8.50567 18.75L13.5001 11.25" stroke="black" stroke-width="2" stroke-linecap="round"/>
<path d="M16.7775 6.71C16.4281 7.418 15.9548 8.12333 15.4708 8.75667C15.0112 9.35334 14.5202 9.92525 14.0001 10.47C13.48 9.92525 12.9891 9.35334 12.5295 8.75667C12.0455 8.12333 11.5721 7.418 11.2228 6.71C10.8695 5.99467 10.6668 5.32467 10.6668 4.75C10.6668 3.86595 11.018 3.0181 11.6431 2.39298C12.2682 1.76786 13.1161 1.41667 14.0001 1.41667C14.8842 1.41667 15.732 1.76786 16.3571 2.39298C16.9823 3.0181 17.3335 3.86595 17.3335 4.75C17.3335 5.32467 17.1301 5.99467 16.7775 6.71ZM14.0001 11.4167C14.0001 11.4167 18.0001 7.626 18.0001 4.75C18.0001 3.68913 17.5787 2.67172 16.8285 1.92157C16.0784 1.17143 15.061 0.75 14.0001 0.75C12.9393 0.75 11.9218 1.17143 11.1717 1.92157C10.4215 2.67172 10.0001 3.68913 10.0001 4.75C10.0001 7.626 14.0001 11.4167 14.0001 11.4167Z" fill="black" stroke="black" stroke-width="1.5"/>
<path d="M14.0001 3.75C13.7349 3.75 13.4806 3.85536 13.293 4.04289C13.1055 4.23043 13.0001 4.48478 13.0001 4.75C13.0001 5.01522 13.1055 5.26957 13.293 5.45711C13.4806 5.64464 13.7349 5.75 14.0001 5.75C14.2653 5.75 14.5197 5.64464 14.7072 5.45711C14.8948 5.26957 15.0001 5.01522 15.0001 4.75C15.0001 4.48478 14.8948 4.23043 14.7072 4.04289C14.5197 3.85536 14.2653 3.75 14.0001 3.75Z" fill="black"/>
<path d="M6.68787 21.3975C6.88437 20.9992 7.15062 20.6025 7.42287 20.2462C7.68142 19.9106 7.95755 19.5889 8.25012 19.2825C8.54269 19.5889 8.81883 19.9106 9.07737 20.2462C9.34962 20.6025 9.61587 20.9992 9.81237 21.3975C10.0111 21.7999 10.1251 22.1767 10.1251 22.5C10.1251 22.9973 9.92758 23.4742 9.57595 23.8258C9.22432 24.1775 8.7474 24.375 8.25012 24.375C7.75284 24.375 7.27593 24.1775 6.9243 23.8258C6.57267 23.4742 6.37512 22.9973 6.37512 22.5C6.37512 22.1767 6.4895 21.7999 6.68787 21.3975ZM8.25012 18.75C8.25012 18.75 6.00012 20.8822 6.00012 22.5C6.00012 23.0967 6.23717 23.669 6.65913 24.091C7.08109 24.5129 7.65338 24.75 8.25012 24.75C8.84686 24.75 9.41916 24.5129 9.84111 24.091C10.2631 23.669 10.5001 23.0967 10.5001 22.5C10.5001 20.8822 8.25012 18.75 8.25012 18.75Z" fill="black" stroke="black" stroke-width="1.5"/>
<path d="M17.6879 21.3975C17.8844 20.9992 18.1506 20.6025 18.4229 20.2462C18.6814 19.9106 18.9576 19.5889 19.2501 19.2825C19.5427 19.5889 19.8188 19.9106 20.0774 20.2462C20.3496 20.6025 20.6159 20.9992 20.8124 21.3975C21.0111 21.7999 21.1251 22.1767 21.1251 22.5C21.1251 22.9973 20.9276 23.4742 20.5759 23.8258C20.2243 24.1775 19.7474 24.375 19.2501 24.375C18.7528 24.375 18.2759 24.1775 17.9243 23.8258C17.5727 23.4742 17.3751 22.9973 17.3751 22.5C17.3751 22.1767 17.4895 21.7999 17.6879 21.3975ZM19.2501 18.75C19.2501 18.75 17.0001 20.8822 17.0001 22.5C17.0001 23.0967 17.2372 23.669 17.6591 24.091C18.0811 24.5129 18.6534 24.75 19.2501 24.75C19.8469 24.75 20.4192 24.5129 20.8411 24.091C21.2631 23.669 21.5001 23.0967 21.5001 22.5C21.5001 20.8822 19.2501 18.75 19.2501 18.75Z" fill="black" stroke="black" stroke-width="1.5"/>
</svg>
