<svg width="24" height="18" viewBox="0 0 24 18" fill="none" xmlns="http://www.w3.org/2000/svg">
<path d="M1 9.75L7.5 16.25L12 11.25" stroke="white" stroke-width="2" stroke-linecap="round" stroke-linejoin="round"/>
<path d="M23 9.75L16.5 16.25L12 11.25" stroke="white" stroke-width="2" stroke-linecap="round" stroke-linejoin="round"/>
<path d="M14.7773 6.71C14.428 7.418 13.9547 8.12333 13.4707 8.75667C13.011 9.35334 12.5201 9.92525 12 10.47C11.4799 9.92525 10.989 9.35334 10.5293 8.75667C10.0453 8.12333 9.572 7.418 9.22267 6.71C8.86933 5.99467 8.66667 5.32467 8.66667 4.75C8.66667 3.86595 9.01786 3.0181 9.64298 2.39298C10.2681 1.76786 11.1159 1.41667 12 1.41667C12.8841 1.41667 13.7319 1.76786 14.357 2.39298C14.9821 3.0181 15.3333 3.86595 15.3333 4.75C15.3333 5.32467 15.13 5.99467 14.7773 6.71ZM12 11.4167C12 11.4167 16 7.626 16 4.75C16 3.68913 15.5786 2.67172 14.8284 1.92157C14.0783 1.17143 13.0609 0.75 12 0.75C10.9391 0.75 9.92172 1.17143 9.17157 1.92157C8.42143 2.67172 8 3.68913 8 4.75C8 7.626 12 11.4167 12 11.4167Z" fill="white" stroke="white" stroke-width="1.5"/>
<path d="M12 5.25C11.8674 5.25 11.7403 5.19728 11.6465 5.10352C11.5527 5.00975 11.5 4.88261 11.5 4.75C11.5 4.61739 11.5527 4.49025 11.6465 4.39648C11.7403 4.30272 11.8674 4.25 12 4.25C12.1326 4.25 12.2597 4.30272 12.3535 4.39648C12.4473 4.49025 12.5 4.61739 12.5 4.75C12.5 4.88261 12.4473 5.00975 12.3535 5.10352C12.2597 5.19728 12.1326 5.25 12 5.25Z" fill="white" stroke="white"/>
</svg>
