<svg width="39" height="30" viewBox="0 0 39 30" fill="none" xmlns="http://www.w3.org/2000/svg">
<path d="M37.2353 18.8677L28.1765 28.75L20.7647 18.8678" stroke="white" stroke-width="2" stroke-linecap="round" stroke-linejoin="round"/>
<path d="M1 17.2207L10.8824 28.7501L19.1176 18.0441" stroke="white" stroke-width="2" stroke-linecap="round" stroke-linejoin="round"/>
<path d="M23.6921 10.5665C23.1167 11.7326 22.3371 12.8943 21.5399 13.9375C20.7829 14.9202 19.9743 15.8622 19.1177 16.7594C18.261 15.8622 17.4524 14.9202 16.6954 13.9375C15.8982 12.8943 15.1186 11.7326 14.5432 10.5665C13.9613 9.38827 13.6275 8.28475 13.6275 7.33824C13.6275 5.88214 14.2059 4.48569 15.2355 3.45608C16.2651 2.42647 17.6616 1.84804 19.1177 1.84804C20.5737 1.84804 21.9702 2.42647 22.9998 3.45608C24.0294 4.48569 24.6079 5.88214 24.6079 7.33824C24.6079 8.28475 24.2729 9.38827 23.6921 10.5665ZM19.1177 18.3186C19.1177 18.3186 25.7059 12.0752 25.7059 7.33824C25.7059 5.59093 25.0118 3.91518 23.7762 2.67965C22.5407 1.44412 20.865 0.75 19.1177 0.75C17.3703 0.75 15.6946 1.44412 14.4591 2.67965C13.2235 3.91518 12.5294 5.59093 12.5294 7.33824C12.5294 12.0752 19.1177 18.3186 19.1177 18.3186Z" fill="white" stroke="white" stroke-width="1.5"/>
<path d="M19.1177 5.69123C18.6808 5.69123 18.2619 5.86476 17.953 6.17365C17.6441 6.48253 17.4706 6.90147 17.4706 7.33829C17.4706 7.77512 17.6441 8.19406 17.953 8.50294C18.2619 8.81182 18.6808 8.98535 19.1177 8.98535C19.5545 8.98535 19.9734 8.81182 20.2823 8.50294C20.5912 8.19406 20.7647 7.77512 20.7647 7.33829C20.7647 6.90147 20.5912 6.48253 20.2823 6.17365C19.9734 5.86476 19.5545 5.69123 19.1177 5.69123Z" fill="white"/>
</svg>
