<svg width="24" height="21" viewBox="0 0 24 21" fill="none" xmlns="http://www.w3.org/2000/svg">
<path d="M23.0001 11.75L18.3564 18.75L13.0001 11.7501" stroke="black" stroke-width="2" stroke-linecap="round"/>
<path d="M1.00012 10.75L6.28519 18.75L12.0001 11.2499" stroke="black" stroke-width="2" stroke-linecap="round"/>
<path d="M14.7775 6.71C14.4281 7.418 13.9548 8.12333 13.4708 8.75667C13.0112 9.35334 12.5202 9.92525 12.0001 10.47C11.48 9.92525 10.9891 9.35334 10.5295 8.75667C10.0455 8.12333 9.57212 7.418 9.22279 6.71C8.86946 5.99467 8.66679 5.32467 8.66679 4.75C8.66679 3.86595 9.01798 3.0181 9.6431 2.39298C10.2682 1.76786 11.1161 1.41667 12.0001 1.41667C12.8842 1.41667 13.732 1.76786 14.3571 2.39298C14.9823 3.0181 15.3335 3.86595 15.3335 4.75C15.3335 5.32467 15.1301 5.99467 14.7775 6.71ZM12.0001 11.4167C12.0001 11.4167 16.0001 7.626 16.0001 4.75C16.0001 3.68913 15.5787 2.67172 14.8285 1.92157C14.0784 1.17143 13.061 0.75 12.0001 0.75C10.9393 0.75 9.92184 1.17143 9.17169 1.92157C8.42155 2.67172 8.00012 3.68913 8.00012 4.75C8.00012 7.626 12.0001 11.4167 12.0001 11.4167Z" fill="black" stroke="black" stroke-width="1.5"/>
<path d="M12.0001 3.75C11.7349 3.75 11.4806 3.85536 11.293 4.04289C11.1055 4.23043 11.0001 4.48478 11.0001 4.75C11.0001 5.01522 11.1055 5.26957 11.293 5.45711C11.4806 5.64464 11.7349 5.75 12.0001 5.75C12.2653 5.75 12.5197 5.64464 12.7072 5.45711C12.8948 5.26957 13.0001 5.01522 13.0001 4.75C13.0001 4.48478 12.8948 4.23043 12.7072 4.04289C12.5197 3.85536 12.2653 3.75 12.0001 3.75Z" fill="black"/>
</svg>
