<svg width="24" height="23" viewBox="0 0 24 23" fill="none" xmlns="http://www.w3.org/2000/svg">
<path d="M1 9.75L7.5 16.25L12 11.25" stroke="black" stroke-width="2" stroke-linecap="round" stroke-linejoin="round"/>
<path d="M23 9.75L16.5 16.25L12 11.25" stroke="black" stroke-width="2" stroke-linecap="round" stroke-linejoin="round"/>
<path d="M14.7773 6.71C14.428 7.418 13.9547 8.12333 13.4707 8.75667C13.011 9.35334 12.5201 9.92525 12 10.47C11.4799 9.92525 10.989 9.35334 10.5293 8.75667C10.0453 8.12333 9.572 7.418 9.22267 6.71C8.86933 5.99467 8.66667 5.32467 8.66667 4.75C8.66667 3.86595 9.01786 3.0181 9.64298 2.39298C10.2681 1.76786 11.1159 1.41667 12 1.41667C12.8841 1.41667 13.7319 1.76786 14.357 2.39298C14.9821 3.0181 15.3333 3.86595 15.3333 4.75C15.3333 5.32467 15.13 5.99467 14.7773 6.71ZM12 11.4167C12 11.4167 16 7.626 16 4.75C16 3.68913 15.5786 2.67172 14.8284 1.92157C14.0783 1.17143 13.0609 0.75 12 0.75C10.9391 0.75 9.92172 1.17143 9.17157 1.92157C8.42143 2.67172 8 3.68913 8 4.75C8 7.626 12 11.4167 12 11.4167Z" fill="black" stroke="black" stroke-width="1.5"/>
<path d="M12 3.75C11.7348 3.75 11.4804 3.85536 11.2929 4.04289C11.1054 4.23043 11 4.48478 11 4.75C11 5.01522 11.1054 5.26957 11.2929 5.45711C11.4804 5.64464 11.7348 5.75 12 5.75C12.2652 5.75 12.5196 5.64464 12.7071 5.45711C12.8946 5.26957 13 5.01522 13 4.75C13 4.48478 12.8946 4.23043 12.7071 4.04289C12.5196 3.85536 12.2652 3.75 12 3.75Z" fill="black"/>
<path d="M5.76417 18.3975C5.9825 17.9993 6.27833 17.6025 6.58083 17.2462C6.8681 16.9106 7.17492 16.5889 7.5 16.2825C7.82508 16.5889 8.1319 16.9106 8.41917 17.2463C8.72167 17.6025 9.0175 17.9993 9.23583 18.3975C9.45667 18.7999 9.58333 19.1768 9.58333 19.5C9.58333 19.9973 9.36384 20.4742 8.97314 20.8258C8.58244 21.1775 8.05253 21.375 7.5 21.375C6.94747 21.375 6.41756 21.1775 6.02686 20.8258C5.63616 20.4742 5.41667 19.9973 5.41667 19.5C5.41667 19.1767 5.54375 18.7999 5.76417 18.3975ZM7.5 15.75C7.5 15.75 5 17.8822 5 19.5C5 20.0967 5.26339 20.669 5.73223 21.091C6.20107 21.5129 6.83696 21.75 7.5 21.75C8.16304 21.75 8.79893 21.5129 9.26777 21.091C9.73661 20.669 10 20.0967 10 19.5C10 17.8823 7.5 15.75 7.5 15.75Z" fill="black" stroke="black" stroke-width="1.5"/>
<path d="M14.7642 18.3975C14.9825 17.9993 15.2783 17.6025 15.5808 17.2462C15.8681 16.9106 16.1749 16.5889 16.5 16.2825C16.8251 16.5889 17.1319 16.9106 17.4192 17.2463C17.7217 17.6025 18.0175 17.9993 18.2358 18.3975C18.4567 18.7999 18.5833 19.1768 18.5833 19.5C18.5833 19.9973 18.3638 20.4742 17.9731 20.8258C17.5824 21.1775 17.0525 21.375 16.5 21.375C15.9475 21.375 15.4176 21.1775 15.0269 20.8258C14.6362 20.4742 14.4167 19.9973 14.4167 19.5C14.4167 19.1767 14.5437 18.7999 14.7642 18.3975ZM16.5 15.75C16.5 15.75 14 17.8822 14 19.5C14 20.0967 14.2634 20.669 14.7322 21.091C15.2011 21.5129 15.837 21.75 16.5 21.75C17.163 21.75 17.7989 21.5129 18.2678 21.091C18.7366 20.669 19 20.0967 19 19.5C19 17.8823 16.5 15.75 16.5 15.75Z" fill="black" stroke="black" stroke-width="1.5"/>
</svg>
