<svg xmlns="http://www.w3.org/2000/svg" width="16" height="16" fill="currentColor" class="bi bi-person-running" viewBox="0 0 16 16">
  <path d="M9.5 2a1.5 1.5 0 1 1-3 0 1.5 1.5 0 0 1 3 0"/>
  <path d="M8.82 4.03a.75.75 0 0 1 .77.2l1.15 1.27h1.51a.75.75 0 0 1 0 1.5h-1.84a.75.75 0 0 1-.56-.25l-.72-.8-.46 1.44 1.79 1.68a.75.75 0 0 1 .2.76l-.7 2.09a.75.75 0 1 1-1.42-.48l.5-1.5-1.53-1.44-1.12 1.86a.75.75 0 0 1-.39.32l-2.22.8a.75.75 0 1 1-.5-1.42l1.9-.68 1.33-2.2.7-2.2-1.06.93-.57 1.32a.75.75 0 1 1-1.37-.6l.64-1.49a.75.75 0 0 1 .2-.27l2.26-1.96a.75.75 0 0 1 .45-.18"/>
  <path d="M7.43 11.63a.75.75 0 0 1 .53.92l-.66 2.58a.75.75 0 1 1-1.45-.38l.66-2.58a.75.75 0 0 1 .92-.54"/>
</svg>
